<svg id="what-the-fuck" width="100px" height="100px" stroke-width="1.5" viewBox="0 0 21.5 19.5"  fill="#333" xmlns="http://www.w3.org/2000/svg">
  <clipPath id="logo-clip" clipPathUnits="objectBoundingBox" transform="scale(0.0465116279 0.0465116279 )">
    <path d="m8.75 3a0.75008 0.75008 0 0 0-0.75 0.75v6a0.75 0.75 0 0 0 0.75 0.75 0.75 0.75 0 0 0 0.75-0.75v-5.25h0.25a0.75 0.75 0 0 0 0.75-0.75 0.75 0.75 0 0 0-0.75-0.75z" color="#000000" style="-inkscape-stroke:none"/>
    <path d="m9.75 3a0.75 0.75 0 0 0-0.75 0.75v5.25h-0.25a0.75 0.75 0 0 0-0.75 0.75 0.75 0.75 0 0 0 0.75 0.75h1a0.75008 0.75008 0 0 0 0.75-0.75v-6a0.75 0.75 0 0 0-0.75-0.75z" color="#000000" style="-inkscape-stroke:none"/>
    <path d="m8.75 12a0.75008 0.75008 0 0 0-0.75 0.75v3a0.75 0.75 0 0 0 0.75 0.75 0.75 0.75 0 0 0 0.75-0.75v-2.25h0.25a0.75 0.75 0 0 0 0.75-0.75 0.75 0.75 0 0 0-0.75-0.75z" color="#000000" style="-inkscape-stroke:none"/>
    <path d="m9.75 12a0.75 0.75 0 0 0-0.75 0.75v2.25h-0.25a0.75 0.75 0 0 0-0.75 0.75 0.75 0.75 0 0 0 0.75 0.75h1a0.75008 0.75008 0 0 0 0.75-0.75v-3a0.75 0.75 0 0 0-0.75-0.75z" color="#000000" style="-inkscape-stroke:none"/>
    <path d="m5.75 3a0.75 0.75 0 0 0-0.75 0.75v6a0.75 0.75 0 0 0 0.75 0.75 0.75 0.75 0 0 0 0.75-0.75v-6a0.75 0.75 0 0 0-0.75-0.75z" color="#000000" style="-inkscape-stroke:none"/>
    <path d="m5.75 12a0.75 0.75 0 0 0-0.75 0.75v3a0.75 0.75 0 0 0 0.75 0.75 0.75 0.75 0 0 0 0.75-0.75v-3a0.75 0.75 0 0 0-0.75-0.75z" color="#000000" style="-inkscape-stroke:none"/>
    <path d="m12.75 3a0.75 0.75 0 0 0-0.75 0.75v6a0.75 0.75 0 0 0 0.75 0.75 0.75 0.75 0 0 0 0.75-0.75v-6a0.75 0.75 0 0 0-0.75-0.75z" color="#000000" style="-inkscape-stroke:none"/>
    <path d="m12.75 12a0.75 0.75 0 0 0-0.75 0.75v3a0.75 0.75 0 0 0 0.75 0.75 0.75 0.75 0 0 0 0.75-0.75v-3a0.75 0.75 0 0 0-0.75-0.75z" color="#000000" style="-inkscape-stroke:none"/>
    <path d="m15.75 3a0.75 0.75 0 0 0-0.75 0.75v6a0.75 0.75 0 0 0 0.75 0.75 0.75 0.75 0 0 0 0.75-0.75v-6a0.75 0.75 0 0 0-0.75-0.75z" color="#000000" style="-inkscape-stroke:none"/>
    <path d="m15.75 12a0.75 0.75 0 0 0-0.75 0.75v3a0.75 0.75 0 0 0 0.75 0.75 0.75 0.75 0 0 0 0.75-0.75v-3a0.75 0.75 0 0 0-0.75-0.75z" color="#000000" style="-inkscape-stroke:none"/>
    <path d="m1.75 0a0.75008 0.75008 0 0 0-0.75 0.75v3a0.75 0.75 0 0 0 0.75 0.75 0.75 0.75 0 0 0 0.75-0.75v-2.25h2.25a0.75 0.75 0 0 0 0.75-0.75 0.75 0.75 0 0 0-0.75-0.75z" color="#000000" style="-inkscape-stroke:none"/>
    <path d="m0.75 9a0.75 0.75 0 0 0-0.75 0.75 0.75 0.75 0 0 0 0.75 0.75h20a0.75 0.75 0 0 0 0.75-0.75 0.75 0.75 0 0 0-0.75-0.75h-10z" color="#000000" style="-inkscape-stroke:none"/>
    <path d="m16.75 0a0.75 0.75 0 0 0-0.75 0.75 0.75 0.75 0 0 0 0.75 0.75h2.25v2.25a0.75 0.75 0 0 0 0.75 0.75 0.75 0.75 0 0 0 0.75-0.75v-3a0.75008 0.75008 0 0 0-0.75-0.75z" color="#000000" style="-inkscape-stroke:none"/>
    <path d="m1.75 15a0.75 0.75 0 0 0-0.75 0.75v3a0.75008 0.75008 0 0 0 0.75 0.75h3a0.75 0.75 0 0 0 0.75-0.75 0.75 0.75 0 0 0-0.75-0.75h-2.25v-2.25a0.75 0.75 0 0 0-0.75-0.75z" color="#000000" style="-inkscape-stroke:none"/>
    <path d="m19.75 15a0.75 0.75 0 0 0-0.75 0.75v2.25h-2.25a0.75 0.75 0 0 0-0.75 0.75 0.75 0.75 0 0 0 0.75 0.75h3a0.75008 0.75008 0 0 0 0.75-0.75v-3a0.75 0.75 0 0 0-0.75-0.75z" color="#000000" style="-inkscape-stroke:none"/>
  </clipPath>
</svg>
